<?xml version="1.0" encoding="UTF-8"?>
<svg id="Layer_1" data-name="Layer 1" xmlns="http://www.w3.org/2000/svg" width="30" height="30" viewBox="0 0 30 30">
  <circle cx="15.1234" cy="15" r="14.1591" fill="#767777" stroke="#fff" stroke-miterlimit="10"/>
  <g>
    <path d="M22.4481,9.7798h-1.8325v7.1526l-2.3054-1.3005-2.3054-1.3596v2.4236l-1.8916-1.064c-.7685-.4729-1.596-.8867-2.3645-1.3596v2.4236l-1.8916-1.064-2.3054-1.3596v8.2166h14.8963V9.7798Zm-11.4678,8.7486h-1.596v1.5369h1.596v-1.5369Zm6.4432,0h-1.596v1.5369h1.596v-1.5369Zm-3.2512,0h-1.5369v1.5369h1.5369v-1.5369Zm6.4432,0h-1.5369v1.5369h1.5369v-1.5369Z" fill="#fff" fill-rule="evenodd"/>
    <path d="M17.128,6.8833c-.4729,.1773-.8867,.2956-.8867,.6502s.3547,.7093,.7093,.7093c.4138,0,.4138-.2364,.7093-.0591,1.0049,.532,1.3005,0,1.8325,.1773,.6502,.1773,.8276,.532,1.9507,.5911,.7093,0,1.4778-2.0098-.9458-2.1872-.0591,0-.2956-1.5369-1.3596-1.3596-.532,.1182-.4729,.532-.7685,.8276-.1182,.2364-.4138,0-.4729-.0591-.5911-.1773-.532,.6502-.7685,.7093Z" fill="#fff" fill-rule="evenodd"/>
  </g>
</svg>