<?xml version="1.0" encoding="UTF-8"?>
<svg id="Layer_1" data-name="Layer 1" xmlns="http://www.w3.org/2000/svg" width="30" height="30" viewBox="0 0 30 30">
  <circle cx="15.1234" cy="15" r="14.1591" fill="#f45ba1" stroke="#fff" stroke-miterlimit="10"/>
  <path d="M23.0705,18.0965c.12,.384,.096,.8-.08,1.168l-.696,2.104c-.112,.328-.416,.552-.76,.552H9.1185c-.344,0-.648-.224-.76-.552l-.696-2.112c-.176-.36-.208-.776-.088-1.16l1.776-5.784c.232-.624,.824-1.032,1.488-1.032h.392c-.016,.128-.032,.264-.048,.4h-.344c-.488,0-.936,.304-1.112,.76l-1.768,5.776c-.096,.288-.072,.592,.064,.872,.008,.016,.008,.032,.016,.048l.696,2.112c.056,.16,.208,.272,.384,.272h12.416c.168,0,.32-.112,.376-.272l.696-2.112,.024-.048c.128-.272,.152-.584,.064-.872l-1.8-5.784c-.176-.448-.624-.752-1.112-.752h-.232c-.016-.128-.032-.264-.04-.4h.272c.656,0,1.248,.408,1.488,1.024l1.8,5.792Z" fill="#fff"/>
  <path d="M22.6945,18.2165c.088,.288,.064,.6-.064,.872l-.024,.048-.696,2.112c-.056,.16-.208,.272-.376,.272H9.1185c-.176,0-.328-.112-.384-.272l-.696-2.112c-.008-.016-.008-.032-.016-.048-.136-.28-.16-.584-.064-.872l1.768-5.776c.176-.456,.624-.76,1.112-.76h.344c-.048,.4-.08,.808-.096,1.224h-.216l-.264,2.088c0,.608,.48,1.096,1.08,1.096,.592,0,1.08-.488,1.08-1.096l-.264-2.088h-.368c.008-.176,.024-.352,.032-.528,.016-.224,.04-.456,.064-.696h6.216c.008,.064,.016,.12,.024,.176,.04,.344,.072,.696,.088,1.048h-.272l-.264,2.088c0,.608,.48,1.096,1.08,1.096,.592,0,1.08-.488,1.08-1.096l-.272-2.088h-.28c-.008-.4-.032-.816-.08-1.224h.232c.488,0,.936,.304,1.112,.752l1.8,5.784Z" fill="#fff"/>
  <path d="M19.9105,12.9045l.272,2.088c0,.608-.488,1.096-1.08,1.096-.6,0-1.08-.488-1.08-1.096l.264-2.088h.272c.008,.088,.016,.176,.008,.264h-.048l-.232,1.84c.008,.448,.368,.816,.816,.816,.44,0,.8-.368,.808-.816l-.232-1.84h-.04c0-.088,0-.176-.008-.264h.28Z" fill="#fff"/>
  <path d="M19.6305,12.9045c.008,.088,.008,.176,.008,.264h-.264c0-.088,0-.176-.008-.264h.264Z" fill="#fff"/>
  <path d="M19.6305,12.9045h-.264c-.008-.392-.032-.8-.08-1.224h.264c.048,.408,.072,.824,.08,1.224Z" fill="#fff"/>
  <path d="M19.5505,11.6805h-.264c-.016-.128-.032-.264-.048-.4h.272c.008,.136,.024,.272,.04,.4Z" fill="#fff"/>
  <path d="M19.5105,11.2805h-.272c-.208-1.488-.664-3.032-1.624-4.072-.6-.648-1.448-1.024-2.32-1.024-.664,0-1.296,.216-1.816,.624-1.008,.792-1.672,2.248-1.96,4.336-.008,.048-.016,.088-.016,.136h-.272l.024-.168c.232-1.68,.776-3.512,2.056-4.512,.584-.456,1.288-.68,1.984-.68,.92,0,1.84,.384,2.512,1.112,.976,1.056,1.48,2.624,1.704,4.248Z" fill="#fff"/>
  <path d="M19.3665,12.9045c.008,.088,.008,.176,.008,.264h-.544c.008-.088,0-.176-.008-.264h.544Z" fill="#fff"/>
  <path d="M18.8225,12.9045c.008,.088,.016,.176,.008,.264h-.264c.008-.088,0-.176-.008-.264h.264Z" fill="#fff"/>
  <path d="M18.7345,11.8245c.04,.36,.072,.72,.088,1.08h-.264c-.016-.352-.048-.704-.088-1.048-.008-.056-.016-.112-.024-.176h.272c.008,.048,.008,.096,.016,.144Z" fill="#fff"/>
  <path d="M18.7185,11.6805h-.272c-.016-.128-.032-.264-.056-.4h.272c.024,.136,.04,.272,.056,.4Z" fill="#fff"/>
  <path d="M18.6625,11.2805h-.272c-.184-1.28-.56-2.672-1.424-3.512-.456-.44-1.032-.656-1.608-.656-.72,0-1.448,.336-1.944,.968-.664,.856-.976,2.04-1.136,3.2h-.272c.152-1.136,.464-2.432,1.2-3.36,.528-.68,1.312-1.072,2.152-1.072,.672,0,1.304,.256,1.792,.728,.968,.936,1.344,2.464,1.512,3.704Z" fill="#fff"/>
  <path d="M18.4465,11.6805h-6.216c.016-.136,.032-.264,.048-.4h6.112c.024,.136,.04,.272,.056,.4Z" fill="#fff"/>
  <path d="M12.5025,12.9045l.264,2.088c0,.608-.488,1.096-1.08,1.096-.6,0-1.08-.488-1.08-1.096l.264-2.088h.216c-.008,.168-.016,.344-.016,.52l-.2,1.584c.008,.448,.368,.816,.816,.816,.44,0,.808-.368,.816-.816l-.24-1.84h-.136c0-.088,0-.176,.008-.264h.368Z" fill="#fff"/>
  <path d="M12.2785,11.2805c-.016,.136-.032,.264-.048,.4h-.272c.016-.128,.032-.264,.048-.4h.272Z" fill="#fff"/>
  <path d="M11.9585,11.6805h.272c-.024,.24-.048,.472-.064,.696-.008,.176-.024,.352-.032,.528h-.264c.008-.176,.016-.36,.032-.552,.016-.208,.032-.432,.056-.672Z" fill="#fff"/>
  <path d="M12.1345,12.9045c-.008,.088-.008,.176-.008,.264h-.264c0-.088,0-.176,.008-.264h.264Z" fill="#fff"/>
  <path d="M11.3505,12.9045h.52c-.008,.088-.008,.176-.008,.264h-.528c.008-.088,.008-.176,.016-.264Z" fill="#fff"/>
  <path d="M11.5025,11.2805c-.024,.136-.04,.264-.056,.4h-.264c.016-.136,.032-.272,.048-.4h.272Z" fill="#fff"/>
  <path d="M11.1825,11.6805h.264c-.048,.416-.08,.824-.096,1.224h-.264c.016-.416,.048-.824,.096-1.224Z" fill="#fff"/>
  <path d="M11.0865,12.9045h.264c-.008,.088-.008,.176-.016,.264h-.232l-.032,.256c0-.176,.008-.352,.016-.52Z" fill="#fff"/>
  <path d="M18.8397,13.1685c-.0179-.4413-.0522-.8906-.1028-1.3458-.145-1.3062-.4682-3.1683-1.5855-4.2471-.4854-.4695-1.1226-.7276-1.793-.7276-.838,0-1.6241,.3897-2.1548,1.0694-.975,1.2463-1.2117,3.1311-1.3048,4.4386-.02,.2799-.0347,.5503-.044,.8124h-.5172c.0226-.6546,.0824-1.3305,.1795-2.0228,.2926-2.0883,.951-3.5461,1.9579-4.3349,.5214-.4083,1.1519-.6252,1.8236-.6252,.8712,0,1.7145,.3738,2.3144,1.0242,1.3791,1.4954,1.7222,4.0372,1.7609,5.9586" fill="#fff"/>
</svg>