<?xml version="1.0" encoding="UTF-8"?>
<svg id="Layer_1" data-name="Layer 1" xmlns="http://www.w3.org/2000/svg" width="30" height="30" viewBox="0 0 30 30">
  <circle cx="15.1234" cy="15" r="14.1591" fill="#1962d8" stroke="#fff" stroke-miterlimit="10"/>
  <g>
    <path d="M22.3424,10.7831c.0154,.0077,.0308,.0154,.0462,.0385h-.1694c-.0077-.0616-.0462-.1232-.1155-.154l.2387,.1155Z" fill="#fff"/>
    <path d="M22.1268,11.3529c.1232,0,.2233,.1001,.2233,.2233v.3003H7.8972v-.3003c0-.1232,.1001-.2233,.2233-.2233h14.0063Z" fill="#fff"/>
    <path d="M22.7659,13.7168c0,.1232-.1001,.2233-.2233,.2233h-.8855v-.3465h.4697c.1232,0,.2233-.1001,.2233-.2156v-.4928h.1925c.1232,0,.2233,.1001,.2233,.2233v.6083Z" fill="#fff"/>
    <path d="M21.1951,10.8216h1.0241c.0385,.1232-.0539,.2772-.2156,.2772h-.2387l-.5698-.2772Z" fill="#fff"/>
    <path d="M22.0036,11.0988c.1617,0,.2541-.154,.2156-.2772h.1771c.1848,.1463,.0847,.4697-.1771,.4697-.0462,0-.0847-.0077-.1232-.0308l-.3311-.1617h.2387Z" fill="#fff"/>
    <polygon points="21.7649 11.0988 8.544 11.0988 9.1061 10.8216 21.1951 10.8216 21.7649 11.0988" fill="#fff"/>
    <rect x="20.1248" y="13.9401" width="1.5323" height="6.391" fill="#fff"/>
    <path d="M20.1248,13.9401v-1.0549h2.2253v.4928c0,.1155-.1001,.2156-.2233,.2156h-.4697v.3465h-1.5323Z" fill="#fff"/>
    <path d="M21.1951,10.8216H9.1061l5.8982-2.9106c.077-.0385,.1617-.0385,.2387,0l5.9521,2.9106Z" fill="#fff"/>
    <rect x="18.7234" y="12.9083" width="1.4014" height="1.0318" fill="#fff"/>
    <rect x="17.476" y="13.9401" width="1.2474" height="6.391" fill="#fff"/>
    <path d="M22.6581,21.4707c.1617,.2772-.0385,.6237-.3542,.6237h-4.1272v-.6314c0-.1232-.1001-.2233-.2233-.2233h-.4774v-.462h3.7345c.2464,0,.4466-.2002,.4466-.4466h.077c.1463,0,.2849,.077,.3619,.2079l.5621,.9317Z" fill="#fff"/>
    <path d="M17.476,20.3311h4.1811c0,.2464-.2002,.4466-.4466,.4466h-3.7345v-.4466Z" fill="#fff"/>
    <polygon points="16.7753 20.3311 17.476 20.3311 17.476 20.7777 12.7559 20.7777 12.7559 20.3388 16.7753 20.3311" fill="#fff"/>
    <path d="M15.2122,7.2565c-.0385-.0154-.0616-.0231-.0924-.0231,.0308,0,.0616,.0077,.0924,.0231Z" fill="#fff"/>
    <path d="M15.1198,7.2334c-.0308,0-.0693,.0077-.0924,.0231,.0308-.0154,.0616-.0231,.0924-.0231Z" fill="#fff"/>
    <path d="M16.7753,17.3127c0-1.0087-.7392-1.8326-1.6555-1.8326-.924,0-1.6632,.8239-1.6632,1.8326v3.0184h3.3187l-4.0194,.0077v-6.3987h-1.2474v-1.0549h8.6163v.0231h-1.4014v1.0318h-1.2474v6.391h-.7007v-3.0184Z" fill="#fff"/>
    <rect x="11.5085" y="13.9401" width="1.2474" height="6.391" fill="#fff"/>
    <rect x="10.1071" y="12.9083" width="1.4014" height="1.0318" fill="#fff"/>
    <rect x="8.5902" y="13.9401" width="1.5169" height="6.391" fill="#fff"/>
    <path d="M12.7559,20.3311v.4466h-3.7191c-.2464,0-.4466-.2002-.4466-.4466h4.1657Z" fill="#fff"/>
    <path d="M12.0552,22.0944H7.9434c-.3157,0-.5159-.3465-.3542-.6237l.5621-.9317c.077-.1309,.2156-.2079,.3619-.2079h.077c0,.2464,.2002,.4466,.4466,.4466h3.7191v.462h-.4774c-.1232,0-.2233,.1001-.2233,.2233v.6314Z" fill="#fff"/>
    <path d="M8.0204,10.8216h1.0857l-.5621,.2772h-.3003c-.1694,0-.2541-.1463-.2233-.2772Z" fill="#fff"/>
    <path d="M8.1436,10.6676l6.853-3.4034c.0077-.0077,.0231-.0077,.0308-.0077,.0231-.0154,.0616-.0231,.0924-.0231s.0539,.0077,.0924,.0231c.0077,0,.0154,0,.0231,.0077l6.8684,3.4034c.0693,.0308,.1078,.0924,.1155,.154h-1.0241l-5.9521-2.9106c-.077-.0385-.1617-.0385-.2387,0l-5.8982,2.9106h-1.0857c.0077-.0616,.0539-.1232,.1232-.154Z" fill="#fff"/>
    <path d="M8.1205,13.5936c-.1232,0-.2233-.1001-.2233-.2156v-.4928h3.6113v.0231h-1.4014v1.0318h-1.5169v-.3465h-.4697Z" fill="#fff"/>
    <path d="M8.1436,10.6676c-.0693,.0308-.1155,.0924-.1232,.154h-.1694c.0154-.0154,.0308-.0308,.0539-.0385l.2387-.1155Z" fill="#fff"/>
    <path d="M8.0281,11.2913c-.2618,0-.3619-.3234-.1771-.4697h.1694c-.0308,.1309,.0539,.2772,.2233,.2772h.3003l-.3311,.1617c-.0308,.0231-.077,.0308-.1155,.0308h-.0693Z" fill="#fff"/>
    <path d="M8.1205,11.3529c-.1232,0-.2233,.1001-.2233,.2233v.3003h-.1925c-.1232,0-.2233-.1001-.2233-.2156v-.616c0-.1232,.1001-.2233,.2233-.2233h.1463c-.1848,.1463-.0847,.4697,.1771,.4697h.0693c.0385,0,.0847-.0077,.1155-.0308l.3311-.1617h13.2209l.3311,.1617c.0385,.0231,.077,.0308,.1232,.0308,.2618,0,.3619-.3234,.1771-.4697h.1463c.1232,0,.2233,.1001,.2233,.2233v.616c0,.1155-.1001,.2156-.2233,.2156h-.1925v-.3003c0-.1232-.1001-.2233-.2233-.2233H8.1205Z" fill="#fff"/>
    <path d="M7.8972,13.378c0,.1155,.1001,.2156,.2233,.2156h.4697v.3465h-.8855c-.1232,0-.2233-.1001-.2233-.2233v-.6083c0-.1232,.1001-.2233,.2233-.2233h.1925v.4928Z" fill="#fff"/>
  </g>
</svg>