<?xml version="1.0" encoding="UTF-8"?>
<svg xmlns="http://www.w3.org/2000/svg" width="30" height="30" viewBox="0 0 30 30">
  <g id="Layer_1" data-name="Layer 1">
    <circle cx="15.1234" cy="15" r="14.1591" fill="#3b8002" stroke="#fff" stroke-miterlimit="10"/>
  </g>
  <g id="icon">
    <path d="M23.6156,17.3234c-.1147-.0191-1.7784-.2104-4.2261-.0382v-1.3768c.4781-.0191,1.243-.153,1.7402-.6502,.6311-.6311,.6693-1.6254,.6693-2.0079,0-.0956-.0765-.153-.153-.153-.3825,0-1.396,.0382-2.0079,.6693-.0956,.0956-.1721,.1912-.2295,.306v-1.396c.4781-.0191,1.243-.153,1.7402-.6502,.6311-.6311,.6693-1.6254,.6693-2.0079,0-.0956-.0765-.153-.153-.153-.3825,0-1.396,.0382-2.0079,.6693-.0956,.0956-.1721,.1912-.2295,.306v-1.874c0-.1912-.153-.3442-.3442-.3442s-.3442,.153-.3442,.3442v1.8167c-.0765-.1147-.153-.2104-.2295-.306-.6311-.6311-1.6254-.6693-2.0079-.6693-.0956,0-.153,.0765-.153,.153,0,.3825,.0382,1.396,.6693,2.0079,.5163,.5163,1.2812,.6311,1.7402,.6502v1.396c-.0765-.1147-.153-.2104-.2295-.306-.6311-.6119-1.6254-.6693-2.0079-.6693-.0956,0-.153,.0765-.153,.153,0,.3825,.0382,1.396,.6693,2.0079,.5163,.5163,1.2812,.6311,1.7402,.6502v1.4342c-1.1474,.1147-2.4477,.306-3.7863,.6119-1.3003-.4398-2.5624-.6884-3.6524-.8414-.0956-.0191-.1721-.0191-.2677-.0382v-1.4533c.4781-.0191,1.243-.153,1.7402-.6502,.6311-.6119,.6693-1.6254,.6693-2.0079,0-.0956-.0765-.153-.153-.153-.3825,0-1.396,.0382-2.0079,.6693-.0956,.0956-.1721,.1912-.2295,.306v-1.4151c.4781-.0191,1.243-.153,1.7402-.6502,.6311-.6311,.6693-1.6254,.6693-2.0079,0-.0956-.0765-.153-.153-.153-.3825,0-1.396,.0382-2.0079,.6693-.0956,.0956-.1721,.1912-.2295,.306v-1.874c0-.1912-.153-.3442-.3442-.3442s-.3442,.153-.3442,.3442v1.874c-.0765-.1147-.153-.2104-.2295-.306-.6311-.6311-1.6254-.6693-2.0079-.6693-.0956,0-.153,.0765-.153,.153,0,.3825,.0382,1.396,.6693,2.0079,.5163,.5163,1.2812,.6311,1.7402,.6502v1.396c-.0765-.1147-.153-.2104-.2295-.306-.6311-.6311-1.6254-.6693-2.0079-.6693-.0956,0-.153,.0765-.153,.153,0,.3825,.0382,1.396,.6693,2.0079,.5163,.5163,1.2812,.6311,1.7402,.6502v1.4342c-2.3903-.2295-4.1305-.0765-4.207-.0574-.1912,.0191-.3442,.1912-.3251,.4016,.0191,.1912,.2104,.3442,.4016,.3251,.0956-.0191,8.7773-.8223,13.6345,3.9775,.0765,.0765,.1721,.1147,.2486,.1147,.0956,0,.1912-.0382,.2677-.1147,.1339-.1339,.1339-.3825,0-.5163-1.2239-1.2239-2.6772-2.0844-4.1496-2.6963,4.0158-.7649,7.3049-.4016,7.3431-.3825,.2104,.0191,.3825-.1147,.4016-.3251-.1147-.1721-.2486-.3633-.4589-.3825Z" fill="#fff"/>
  </g>
</svg>