<?xml version="1.0" encoding="UTF-8"?>
<svg id="icon" xmlns="http://www.w3.org/2000/svg" width="30" height="30" viewBox="0 0 30 30">
  <circle cx="15.1234" cy="15" r="14.1591" fill="#ff7c24" stroke="#fff" stroke-miterlimit="10"/>
  <g>
    <circle cx="10.0066" cy="11.5618" r="1.6755" fill="#f3f3f3"/>
    <path d="M17.7515,21.333c.7513-3.7919,.0403-9.5911-.2512-11.6127-.1991,2.9079-1.6281,9.3636-2.0595,11.2666,.7784,.0514,1.5513,.1672,2.3107,.346Z" fill="#f3f3f3"/>
    <path d="M20.9556,9.09c-.839-.3744-1.8462-.2109-2.8439,.192,1.5915,.4084,3.1251,1.0159,4.5645,1.8083-.365-.8413-.9195-1.6447-1.7206-2.0002Z" fill="#f3f3f3"/>
    <path d="M21.0149,5.7721c-.5827-.016-1.1579,.1335-1.659,.4313-.7916,.5024-1.2845,1.4646-1.4788,2.8866,1.3247-1.2688,2.8331-2.3306,4.4744-3.1496-.4378-.1062-.8862-.1627-1.3366-.1683Z" fill="#f3f3f3"/>
    <path d="M14.808,7.0898c-1.0404-.1327-2.0571,.4171-2.8344,1.0238,1.8321,.0535,3.6457,.3826,5.3797,.9764-.7702-1.2087-1.6234-1.8746-2.5453-2.0002Z" fill="#f3f3f3"/>
    <path d="M14.4478,10.2204c-.5593,.5143-.8176,1.2798-.9243,2.0381,.977-1.0276,2.0634-1.9455,3.2397-2.7373h-.0948c-.8698,0-1.6661,.1872-2.2206,.6991Z" fill="#f3f3f3"/>
    <path d="M17.9885,22.3734c-3.8203-1.0522-7.4013-.4266-10.6647,1.8557h14.8689c-1.3065-.8145-2.7221-1.4393-4.2043-1.8557Z" fill="#f3f3f3"/>
  </g>
</svg>