<svg width="161" height="34" viewBox="0 0 161 34" fill="none"
    xmlns="http://www.w3.org/2000/svg">
    <path d="M142.782 12.332V23.5H140.542V12.332H142.782Z" fill="#003995" />
    <path d="M133.163 23.6119C132.118 23.6119 131.158 23.3665 130.283 22.8759C129.408 22.3852 128.715 21.7079 128.203 20.8439C127.691 19.9692 127.435 18.9825 127.435 17.8839C127.435 16.7959 127.691 15.8199 128.203 14.9559C128.715 14.0812 129.408 13.3985 130.283 12.9079C131.158 12.4172 132.118 12.1719 133.163 12.1719C134.219 12.1719 135.179 12.4172 136.043 12.9079C136.918 13.3985 137.606 14.0812 138.107 14.9559C138.619 15.8199 138.875 16.7959 138.875 17.8839C138.875 18.9825 138.619 19.9692 138.107 20.8439C137.606 21.7079 136.918 22.3852 136.043 22.8759C135.168 23.3665 134.208 23.6119 133.163 23.6119ZM133.163 21.6119C133.835 21.6119 134.427 21.4625 134.939 21.1639C135.451 20.8545 135.851 20.4172 136.139 19.8519C136.427 19.2865 136.571 18.6305 136.571 17.8839C136.571 17.1372 136.427 16.4865 136.139 15.9319C135.851 15.3665 135.451 14.9345 134.939 14.6359C134.427 14.3372 133.835 14.1879 133.163 14.1879C132.491 14.1879 131.894 14.3372 131.371 14.6359C130.859 14.9345 130.459 15.3665 130.171 15.9319C129.883 16.4865 129.739 17.1372 129.739 17.8839C129.739 18.6305 129.883 19.2865 130.171 19.8519C130.459 20.4172 130.859 20.8545 131.371 21.1639C131.894 21.4625 132.491 21.6119 133.163 21.6119Z" fill="#003995" />
    <path d="M124.034 17.772C124.663 17.8894 125.18 18.204 125.586 18.716C125.991 19.228 126.194 19.8147 126.194 20.476C126.194 21.0734 126.044 21.6014 125.746 22.06C125.458 22.508 125.036 22.86 124.482 23.116C123.927 23.372 123.271 23.5 122.514 23.5H117.698V12.332H122.306C123.063 12.332 123.714 12.4547 124.258 12.7C124.812 12.9454 125.228 13.2867 125.506 13.724C125.794 14.1614 125.938 14.6574 125.938 15.212C125.938 15.8627 125.762 16.4067 125.41 16.844C125.068 17.2814 124.61 17.5907 124.034 17.772ZM119.938 16.94H121.986C122.519 16.94 122.93 16.8227 123.218 16.588C123.506 16.3427 123.65 15.996 123.65 15.548C123.65 15.1 123.506 14.7534 123.218 14.508C122.93 14.2627 122.519 14.14 121.986 14.14H119.938V16.94ZM122.194 21.676C122.738 21.676 123.159 21.548 123.458 21.292C123.767 21.036 123.922 20.6734 123.922 20.204C123.922 19.724 123.762 19.3507 123.442 19.084C123.122 18.8067 122.69 18.668 122.146 18.668H119.938V21.676H122.194Z" fill="#003995" />
    <path d="M105.792 23.5L103.376 19.74L101.184 23.5H98.656L102.176 17.868L98.608 12.332H101.184L103.6 16.076L105.776 12.332H108.304L104.8 17.948L108.368 23.5H105.792Z" fill="#2B2B2B" />
    <path d="M25.4996 19.6608C26.0371 19.6608 26.5305 19.4169 26.8839 19.0104C28.7395 16.7413 31.869 12.4765 31.7585 9.2243C31.6481 5.72082 28.8941 2.96387 25.4996 2.96387C22.1051 2.96387 19.3511 5.72821 19.2407 9.2243C19.1523 12.4765 22.2597 16.7634 24.1153 19.0104C24.4761 19.4391 24.9621 19.6608 25.4996 19.6608ZM23.2611 9.24648C23.2611 8.01213 24.2699 6.99952 25.4996 6.99952C26.7293 6.99952 27.7381 8.01213 27.7381 9.24648C27.7381 10.4808 26.7293 11.4934 25.4996 11.4934C24.2699 11.4934 23.2611 10.4808 23.2611 9.24648Z" fill="#3E91C1" />
    <path d="M39.468 18.1601C39.468 14.5827 41.9863 12.5205 44.8286 12.5205C46.1835 12.5205 47.1776 13.0453 47.9507 13.7253L46.7284 15.3588C46.1614 14.8636 45.6239 14.5753 44.9538 14.5753C43.2308 14.5753 42.0379 16.0092 42.0379 18.1601C42.0379 20.3109 43.216 21.7227 44.8728 21.7227C45.7049 21.7227 46.478 21.3088 47.0818 20.7988L48.098 22.4618C47.0966 23.3562 45.8227 23.7849 44.6077 23.7849C41.6918 23.7849 39.4533 21.7227 39.4533 18.1675L39.468 18.1601Z" fill="#3A3A3C" />
    <path d="M48.9963 18.1601C48.9963 14.5827 51.4189 12.5205 54.0771 12.5205C56.7353 12.5205 59.1579 14.5827 59.1579 18.1601C59.1579 21.7375 56.7353 23.7775 54.0771 23.7775C51.4189 23.7775 48.9963 21.7153 48.9963 18.1601ZM56.588 18.1601C56.588 16.0092 55.6455 14.5753 54.0845 14.5753C52.5234 14.5753 51.5809 16.0092 51.5809 18.1601C51.5809 20.3109 52.5234 21.7227 54.0845 21.7227C55.6455 21.7227 56.588 20.3036 56.588 18.1601Z" fill="#3A3A3C" />
    <path d="M61.6467 12.787H63.7011L63.8926 13.9327H63.9588C64.8572 13.1566 66.0059 12.5283 67.1767 12.5283C69.8496 12.5283 71.3812 14.6792 71.3812 17.9905C71.3812 21.6566 69.1942 23.7853 66.8158 23.7853C65.866 23.7853 64.9382 23.3566 64.0619 22.6027L64.1429 24.384V27.7692H61.6393V12.7944L61.6467 12.787ZM68.8113 18.0127C68.8113 15.8692 68.1118 14.6053 66.4845 14.6053C65.7113 14.6053 64.975 14.997 64.1503 15.8101V20.8066C64.9161 21.4644 65.6745 21.7009 66.293 21.7009C67.7215 21.7009 68.8113 20.4444 68.8113 18.0127Z" fill="#3E91C1" />
    <path d="M73.6344 9.48316C73.6344 8.63316 74.2971 8.05664 75.1807 8.05664C76.0643 8.05664 76.727 8.63316 76.727 9.48316C76.727 10.3332 76.0643 10.9097 75.1807 10.9097C74.2971 10.9097 73.6344 10.3184 73.6344 9.48316ZM73.9216 12.7871H76.4251V23.5192H73.9216V12.7871Z" fill="#3E91C1" />
    <path d="M79.6208 12.7866H81.6752L81.8667 14.2353H81.933C82.8902 13.304 83.98 12.5205 85.438 12.5205C87.728 12.5205 88.7294 14.0727 88.7294 16.7853V23.5114H86.2259V17.1031C86.2259 15.3366 85.7178 14.6714 84.5617 14.6714C83.6192 14.6714 83.0007 15.137 82.1244 16.0092V23.504H79.6208V12.7718V12.7866Z" fill="#3E91C1" />
    <path d="M16.8107 27.437L16.2511 29.1887C14.2041 28.5309 12.3338 27.363 10.8316 25.8035C9.32948 24.2439 8.23232 22.3222 7.64325 20.2452L9.41047 19.75C10.434 23.4087 13.2026 26.2839 16.8107 27.437Z" fill="#3E91C1" />
    <path d="M32.7599 20.4515C32.1414 22.5137 31.0148 24.4133 29.4905 25.9507C27.9663 27.4807 26.0813 28.6189 24.0269 29.2472L23.4967 27.4881C27.1122 26.3868 29.925 23.5633 31.0074 19.9268L32.7599 20.4515Z" fill="#3E91C1" />
    <path d="M16.8991 5.90519C13.615 6.93258 10.9274 9.47519 9.71239 12.7052L7.9967 12.0548C8.68887 10.1995 9.82284 8.49954 11.2587 7.13215C12.7019 5.76476 14.4618 4.72998 16.3542 4.13867L16.8991 5.8978V5.90519Z" fill="#3E91C1" />
    <path d="M8.07772 18.7372C9.25707 18.7372 10.2131 17.7775 10.2131 16.5937C10.2131 15.4099 9.25707 14.4502 8.07772 14.4502C6.89837 14.4502 5.94232 15.4099 5.94232 16.5937C5.94232 17.7775 6.89837 18.7372 8.07772 18.7372Z" fill="#3E91C1" />
    <path d="M20.139 31.0291C21.3183 31.0291 22.2744 30.0695 22.2744 28.8857C22.2744 27.7019 21.3183 26.7422 20.139 26.7422C18.9597 26.7422 18.0036 27.7019 18.0036 28.8857C18.0036 30.0695 18.9597 31.0291 20.139 31.0291Z" fill="#3E91C1" />
</svg>